<svg width="425" height="443" viewBox="0 0 425 443" fill="none" xmlns="http://www.w3.org/2000/svg">
<g clip-path="url(#clip0_2_257)">
<path d="M402.76 412.8C402.76 429.478 312.6 443 201.38 443C90.1597 443 0 429.478 0 412.8C0 400.993 45.1935 390.765 111.058 385.803C138.218 383.75 168.906 382.601 201.38 382.601C214.729 382.601 227.773 382.796 240.389 383.166C332.939 385.894 402.76 398.123 402.76 412.8Z" fill="#3F3D56"/>
<path opacity="0.1" d="M175.395 418.97C218.089 418.97 252.699 414.754 252.699 409.553C252.699 404.352 218.089 400.136 175.395 400.136C132.702 400.136 98.0914 404.352 98.0914 409.553C98.0914 414.754 132.702 418.97 175.395 418.97Z" fill="black"/>
<path d="M175.07 416.373C215.432 416.373 248.152 381.48 248.152 338.438C248.152 295.396 215.432 260.504 175.07 260.504C134.709 260.504 101.989 295.396 101.989 338.438C101.989 381.48 134.709 416.373 175.07 416.373Z" fill="#3F3D56"/>
<path d="M198.132 384.549H152.659V426.114H198.132V384.549Z" fill="#60567B"/>
<path d="M257.571 394.616L254.973 408.904L271.863 411.502L282.906 405.007L282.256 394.616H257.571Z" fill="#575A89"/>
<path d="M172.472 126.392C172.472 126.392 171.173 141.33 167.925 141.979C164.677 142.628 175.07 168.607 175.07 168.607H190.661L203.004 165.359L197.157 151.071C197.157 151.071 189.362 140.68 195.208 132.237C201.055 123.794 172.472 126.392 172.472 126.392Z" fill="#A0616A"/>
<path opacity="0.1" d="M172.472 126.392C172.472 126.392 171.173 141.33 167.925 141.979C164.677 142.628 175.07 168.607 175.07 168.607H190.661L203.004 165.359L197.157 151.071C197.157 151.071 189.362 140.68 195.208 132.237C201.055 123.794 172.472 126.392 172.472 126.392Z" fill="black"/>
<path d="M139.991 240.696C139.991 240.696 123.101 273.168 136.743 279.663C150.385 286.157 153.633 285.508 153.633 287.456C153.633 289.405 151.035 288.755 152.334 292.002C153.633 295.25 149.736 308.239 153.633 316.032C157.531 323.826 156.232 329.671 156.232 329.671C156.232 329.671 156.232 330.32 157.531 332.918C158.83 335.516 159.48 337.464 158.83 338.763C158.181 340.062 154.283 348.505 158.181 350.453C162.078 352.401 182.216 353.7 184.165 350.453C186.114 347.206 182.216 345.257 184.165 343.309C186.114 341.361 187.413 340.711 186.114 339.412C184.815 338.114 183.515 321.877 183.515 321.877C183.515 321.877 186.763 303.043 185.464 300.445C184.165 297.847 182.216 295.25 183.515 293.301C184.815 291.353 186.114 292.002 186.763 289.405C187.413 286.807 188.712 280.962 188.712 280.962L195.858 280.312L212.748 283.56C212.748 283.56 231.587 304.342 252.374 310.837C252.374 310.837 258.221 316.682 260.17 316.682C262.118 316.682 262.118 316.682 261.469 317.98C260.819 319.279 258.87 319.279 260.17 320.578C261.469 321.877 263.418 319.929 262.118 321.877C260.819 323.826 259.52 323.826 260.819 325.124C262.118 326.423 260.17 333.567 260.17 334.217C260.17 334.866 254.323 395.915 256.272 397.214C258.221 398.513 285.505 402.409 287.453 397.214C289.402 392.018 286.154 385.524 286.154 385.524C286.154 385.524 295.898 307.589 293.3 302.394C290.701 297.198 281.607 273.818 232.886 258.88C232.886 258.88 219.244 256.283 219.244 254.334C219.244 252.386 217.945 240.046 215.346 239.397C212.748 238.747 197.807 238.098 197.807 238.098L178.968 243.943L152.984 239.397L139.991 240.696Z" fill="#2F2E41"/>
<path d="M162.728 349.804L159.48 361.494C159.48 361.494 156.881 380.328 160.129 384.874C162.681 388.445 167.236 392.817 175.684 393.585C178.052 393.802 180.422 393.204 182.404 391.892C184.386 390.579 185.861 388.629 186.584 386.364C186.68 386.093 186.741 385.81 186.764 385.523C186.764 384.225 184.815 368.638 184.815 368.638L181.567 352.401L180.917 347.855L162.728 349.804Z" fill="#2F2E41"/>
<path d="M257.571 405.657C257.571 405.657 254.323 402.409 253.673 405.657C253.024 408.904 250.425 422.542 254.973 423.192C259.52 423.841 303.044 430.336 307.591 427.738C312.139 425.14 320.584 421.243 315.387 419.295C310.19 417.347 295.249 411.502 295.249 411.502C295.249 411.502 286.804 400.461 285.504 399.811C284.205 399.162 277.059 400.461 273.811 403.059C270.563 405.657 257.571 405.657 257.571 405.657Z" fill="#2F2E41"/>
<path d="M188.063 140.031C199.185 140.031 208.201 131.017 208.201 119.898C208.201 108.778 199.185 99.7646 188.063 99.7646C176.941 99.7646 167.925 108.778 167.925 119.898C167.925 131.017 176.941 140.031 188.063 140.031Z" fill="#A0616A"/>
<path d="M186.114 165.359L178.319 156.916L169.678 140.031C169.678 140.031 163.377 138.082 162.078 141.33C160.779 144.577 137.393 154.968 137.393 154.968C137.393 154.968 143.239 209.522 140.641 214.718C138.043 219.913 133.495 240.696 137.393 242.644C141.291 244.592 159.48 242.644 165.326 245.242C171.173 247.84 188.063 247.84 192.61 244.592C197.157 241.345 198.456 238.747 203.004 240.696C206.875 242.354 215.925 185.648 218.531 168.749C218.75 167.329 218.568 165.877 218.004 164.556C217.441 163.235 216.519 162.098 215.342 161.274C209.513 157.186 199.016 150.142 197.157 151.071C194.559 152.37 186.114 165.359 186.114 165.359Z" fill="#575A89"/>
<path d="M214.047 162.761C215.573 163.143 216.945 163.982 217.98 165.165C219.014 166.349 219.662 167.821 219.836 169.383L225.091 216.666C225.091 216.666 212.098 244.592 205.602 225.758C199.106 206.924 214.047 162.761 214.047 162.761Z" fill="#575A89"/>
<path d="M212.748 221.212L227.039 217.315C227.039 217.315 229.638 235.5 232.236 235.5C234.835 235.5 223.142 245.891 217.295 244.592C211.449 243.294 203.004 238.747 202.354 235.5C201.705 232.253 208.201 218.614 208.201 218.614L212.748 221.212Z" fill="#575A89"/>
<path d="M172.861 128.583C174.23 125.564 173.992 122.043 175.124 118.928C175.73 117.259 176.714 115.754 177.999 114.529C179.283 113.304 180.834 112.392 182.529 111.865C184.224 111.338 186.018 111.21 187.771 111.491C189.524 111.772 191.188 112.454 192.633 113.485C194.09 114.523 195.55 115.981 197.327 115.783C199.241 115.57 200.949 113.435 202.709 114.217C204.659 115.084 204.133 118.579 206.109 119.387C207.149 119.812 208.378 119.157 208.978 118.207C209.503 117.209 209.789 116.103 209.813 114.976C210.086 112.206 210.333 109.274 209.131 106.763C208.626 105.912 208.185 105.024 207.813 104.107C207.603 103.251 207.519 102.368 207.563 101.487C207.552 98.2313 207.314 94.8353 205.675 92.0218C203.857 88.8998 200.495 86.9035 196.988 86.0324C193.481 85.1613 189.806 85.2949 186.206 85.5996C180.253 86.1034 174.045 87.1834 169.356 90.8829C168.718 91.3485 168.169 91.9247 167.736 92.5842C167.324 93.3676 167.033 94.2087 166.873 95.079C165.859 99.207 164.339 103.194 162.347 106.949C161.389 108.541 160.605 110.232 160.011 111.992C159.514 113.781 159.547 115.82 160.588 117.357C161.436 118.609 162.791 119.276 163.856 120.3C164.911 121.314 165.404 123.264 166.573 124.032C167.593 124.702 168.815 124.229 169.855 124.94C171.191 125.852 171.287 127.852 172.861 128.583Z" fill="#2F2E41"/>
<path d="M189.362 175.101L191.311 171.204C191.311 171.204 219.894 179.647 225.74 187.441C225.74 187.441 240.032 178.348 247.827 179.647L255.622 180.946L231.587 202.378L201.055 199.78L189.362 175.101Z" fill="#F2F2F2"/>
<path d="M188.063 171.204L161.429 208.223L199.756 227.057C199.756 227.057 203.339 229.006 206.095 227.057L231.587 215.367L255.622 180.946L231.587 193.286C231.587 193.286 228.988 188.09 223.791 190.688L188.063 171.204Z" fill="#60567B"/>
<path d="M228.988 236.799L234.185 223.16C234.185 223.16 245.878 208.223 239.382 201.079C232.886 193.935 225.74 221.862 225.74 221.862L228.988 236.799Z" fill="#A0616A"/>
<path d="M169.028 234.623L180.367 225.431C180.367 225.431 197.978 218.375 195.944 208.937C193.91 199.499 173.714 220.072 173.714 220.072L169.028 234.623Z" fill="#A0616A"/>
<path opacity="0.1" d="M140.966 168.931H140.316C140.316 168.931 130.247 156.916 128.298 173.153C126.35 189.389 119.853 243.294 136.743 245.242C153.633 247.19 165.651 237.124 165.651 237.124C165.651 237.124 177.994 218.29 173.446 218.29C171.246 218.29 165.262 217.302 159.805 217.64C153.982 218.001 148.751 219.641 149.086 217.965C149.736 214.718 159.155 173.477 140.966 168.931Z" fill="black"/>
<path d="M139.991 156.267L137.393 154.968C137.393 154.968 126.999 156.916 125.05 173.153C123.101 189.389 116.605 243.293 133.495 245.242C150.385 247.19 173.122 242.644 173.122 242.644C173.122 242.644 177.669 217.965 173.122 217.965C168.574 217.965 145.188 221.212 145.838 217.965C146.488 214.718 158.181 160.813 139.991 156.267Z" fill="#575A89"/>
<path d="M219.569 229.331L226.732 218.354L231.262 236.475L219.569 241.67V229.331Z" fill="#575A89"/>
<path d="M72.4143 72.8124C82.1011 72.8124 89.9538 64.9616 89.9538 55.2771C89.9538 45.5927 82.1011 37.7419 72.4143 37.7419C62.7275 37.7419 54.8748 45.5927 54.8748 55.2771C54.8748 64.9616 62.7275 72.8124 72.4143 72.8124Z" fill="#F2F2F2"/>
<path d="M93.2019 185.817H51.6267V227.382H93.2019V185.817Z" fill="#F2F2F2"/>
<path d="M241.656 0L252.179 18.2217L262.701 36.4433H241.656H220.61L231.133 18.2217L241.656 0Z" fill="#F2F2F2"/>
<path d="M425 109.257C424.748 117.031 422.855 123.262 419.319 127.95C415.783 132.639 411.581 134.984 406.716 134.984C402.752 134.984 399.278 132.69 396.294 128.101C393.309 123.512 391.817 116.453 391.817 106.925C391.817 104.818 391.867 102.812 391.968 100.907C392.068 99.0012 392.193 97.1958 392.344 95.4903L394.977 70.741H377.596C374.586 102.035 372.116 120.653 370.184 126.596C368.253 132.539 364.98 135.51 360.365 135.511C358.282 135.459 356.294 134.627 354.797 133.179C353.929 132.409 353.242 131.457 352.786 130.39C352.331 129.323 352.118 128.169 352.163 127.01C352.163 124.704 353.982 121.482 357.618 117.343C361.255 113.206 363.274 109.432 363.676 106.022L368.19 70.741H360.892C358.834 70.7533 356.809 71.2561 354.985 72.2078C353.306 72.9788 351.845 74.155 350.734 75.6306L347.498 80.4451H344.865C347.322 72.8226 350.344 67.0929 353.932 63.256C357.517 59.4194 361.643 57.5012 366.309 57.5012H423.796V70.741H404.383C403.781 76.7591 403.317 82.7771 402.991 88.7951C402.664 94.8132 402.501 100.856 402.502 106.925C402.502 111.037 403.455 114.372 405.361 116.93C407.267 119.487 409.65 120.766 412.51 120.766C414.265 120.766 416.108 120.051 418.04 118.622C418.957 117.979 419.724 117.145 420.289 116.178C420.854 115.211 421.204 114.133 421.313 113.018C421.464 111.915 421.576 111.05 421.652 110.423C421.727 109.796 421.764 109.407 421.765 109.257L425 109.257Z" fill="#60567B"/>
<path opacity="0.1" d="M425 109.257C424.748 117.031 422.855 123.262 419.319 127.95C415.783 132.639 411.581 134.984 406.716 134.984C402.752 134.984 399.278 132.69 396.294 128.101C393.309 123.512 391.817 116.453 391.817 106.925C391.817 104.818 391.867 102.812 391.968 100.907C392.068 99.0012 392.193 97.1958 392.344 95.4903L394.977 70.741H377.596C374.586 102.035 372.116 120.653 370.184 126.596C368.253 132.539 364.98 135.51 360.365 135.511C358.282 135.459 356.294 134.627 354.797 133.179C353.929 132.409 353.242 131.457 352.786 130.39C352.331 129.323 352.118 128.169 352.163 127.01C352.163 124.704 353.982 121.482 357.618 117.343C361.255 113.206 363.274 109.432 363.676 106.022L368.19 70.741H360.892C358.834 70.7533 356.809 71.2561 354.985 72.2078C353.306 72.9788 351.845 74.155 350.734 75.6306L347.498 80.4451H344.865C347.322 72.8226 350.344 67.0929 353.932 63.256C357.517 59.4194 361.643 57.5012 366.309 57.5012H423.796V70.741H404.383C403.781 76.7591 403.317 82.7771 402.991 88.7951C402.664 94.8132 402.501 100.856 402.502 106.925C402.502 111.037 403.455 114.372 405.361 116.93C407.267 119.487 409.65 120.766 412.51 120.766C414.265 120.766 416.108 120.051 418.04 118.622C418.957 117.979 419.724 117.145 420.289 116.178C420.854 115.211 421.204 114.133 421.313 113.018C421.464 111.915 421.576 111.05 421.652 110.423C421.727 109.796 421.764 109.407 421.765 109.257L425 109.257Z" fill="black"/>
<path d="M425 106.906C424.748 114.68 422.855 120.912 419.319 125.6C415.783 130.289 411.581 132.633 406.716 132.634C402.752 132.634 399.278 130.339 396.294 125.75C393.309 121.162 391.817 114.103 391.817 104.574C391.817 102.468 391.867 100.462 391.968 98.5562C392.068 96.6509 392.193 94.8455 392.344 93.14L394.977 68.3906H377.596C374.586 99.6846 372.116 118.303 370.184 124.246C368.253 130.189 364.98 133.16 360.365 133.16C358.282 133.109 356.294 132.277 354.797 130.828C353.929 130.059 353.242 129.107 352.786 128.04C352.331 126.973 352.118 125.819 352.163 124.66C352.163 122.354 353.982 119.131 357.618 114.993C361.255 110.856 363.274 107.082 363.676 103.672L368.19 68.3907H360.892C358.834 68.4029 356.809 68.9058 354.985 69.8575C353.306 70.6284 351.845 71.8046 350.734 73.2802L347.498 78.0947H344.865C347.322 70.4722 350.344 64.7425 353.932 60.9056C357.517 57.0691 361.643 55.1508 366.309 55.1508H423.796V68.3906H404.383C403.781 74.4087 403.317 80.4268 402.991 86.4448C402.664 92.4629 402.501 98.5061 402.502 104.574C402.502 108.687 403.455 112.022 405.361 114.579C407.267 117.137 409.65 118.416 412.51 118.416C414.265 118.416 416.108 117.701 418.04 116.272C418.957 115.629 419.724 114.795 420.289 113.828C420.854 112.86 421.204 111.782 421.313 110.668C421.464 109.565 421.576 108.7 421.652 108.072C421.727 107.446 421.764 107.057 421.765 106.906H425Z" fill="#60567B"/>
</g>
<defs>
<clipPath id="clip0_2_257">
<rect width="425" height="443" fill="white"/>
</clipPath>
</defs>
</svg>
