<svg width="100" height="100" viewBox="0 0 100 100" fill="none" xmlns="http://www.w3.org/2000/svg">
<path d="M47.0611 2.13525C48.8135 0.862033 51.1865 0.862035 52.9389 2.13525L94.6139 32.4139C96.3663 33.6871 97.0996 35.944 96.4303 38.0041L80.5118 86.9959C79.8425 89.0561 77.9227 90.4509 75.7566 90.4509H24.2434C22.0773 90.4509 20.1575 89.056 19.4882 86.9959L3.56974 38.0041C2.90037 35.9439 3.63366 33.6871 5.3861 32.4139L47.0611 2.13525Z" fill="#5559BB"/>
<path d="M47.5611 22.1353C49.3135 20.862 51.6865 20.862 53.4389 22.1353L76.5683 38.9397C78.3207 40.2129 79.054 42.4698 78.3847 44.5299L69.55 71.7201C68.8807 73.7802 66.9609 75.175 64.7947 75.175H36.2053C34.0391 75.175 32.1194 73.7802 31.45 71.7201L22.6153 44.5299C21.946 42.4698 22.6793 40.2129 24.4317 38.9397L47.5611 22.1353Z" fill="#A5A8F3"/>
</svg>
